<svg height="562" viewBox="0 0 1600 562" width="1600" xmlns="http://www.w3.org/2000/svg" xmlns:xlink="http://www.w3.org/1999/xlink"><defs><path id="a" d="m0 0h1600v562h-1600z"/><mask id="b" fill="#fff"><use fill="#fff" fill-rule="evenodd" xlink:href="#a"/></mask><mask id="c" fill="#fff"><path d="m692.498187 107.897862v-106.9803541h-691.78589895v106.9803541z" fill="#fff" fill-rule="evenodd"/></mask></defs><g fill="none" fill-rule="evenodd"><use fill="#f5f8fa" xlink:href="#a"/><g mask="url(#b)" opacity=".05"><g fill="#4b5161" transform="matrix(0 -1 1 0 -35 546)"><path d="m22.9003178 76.9297385c0 3.6060194-2.9322472 6.5372438-6.5362456 6.5372438-3.6066641 0-6.53624571-2.9312244-6.53624571-6.5372438 0-3.6086866 2.92958161-6.5399109 6.53624571-6.5399109 3.6039984 0 6.5362456 2.9312243 6.5362456 6.5399109zm484.9936942-76.17982723c-.247908-.25071437-.586449-.3920746-.940985-.3920746h-492.8841047c-.3545354 0-.6930766.14136023-.9436505.3920746l-12.47004783 12.47170623c-.24790817.2507143-.38918917.5894454-.38918917.9441796v47.179643c0 .3547342.141281.6934653.38918917.9441797l8.86071804 8.8630196c-1.32484262 1.5682984-2.15386888 3.568679-2.15386888 5.7770991 0 4.9662782 4.03850417 9.007047 9.00199907 9.007047 4.9634948 0 9.001999-4.0407688 9.001999-9.007047s-4.0385042-9.0097141-9.001999-9.0097141c-1.7940022 0-3.4547204.5414363-4.8595334 1.4509427l-8.57282469-8.577632v-46.075433l11.68900379-11.6928913h491.7805141l96.830801 96.8824328c.250573.2507144.589115.3920744.94365.3920744h116.031689v-2.6671739h-115.479893z" transform="translate(34.653831 244.804274)"/><path d="m15.5385113 94.5460588c0 3.6060194-2.9322473 6.5372442-6.53624569 6.5372442-3.60666411 0-6.53624568-2.9312248-6.53624568-6.5372442 0-3.6086866 2.92958157-6.5399109 6.53624568-6.5399109 3.60399839 0 6.53624569 2.9312243 6.53624569 6.5399109zm532.7520047-94.15658085c-.247908-.25071437-.586449-.38940742-.940985-.38940742h-503.9360111c-.3545354 0-.6930767.13869305-.9409848.38940742l-21.6346533 21.64678515c-.2479082.2507144-.3891892.5894455-.3891892.9441797v59.6273446l-5.3473527 5.3503513c-1.6100703-1.4882831-3.7399481-2.4217941-6.09907429-2.4217941-4.96349488 0-9.00199904 4.043436-9.00199904 9.0097142s4.03850416 9.0070472 9.00199904 9.0070472c4.96349489 0 9.00466469-4.040769 9.00466469-9.0070472 0-1.6376449-.4744909-3.1579342-1.2422065-4.4835197l5.9577932-5.958467c.2505739-.2507144.3918549-.5894455.3918549-.9441796v-59.6273447l20.8509436-20.86530315h502.8324205l92.76564 92.82299375c.247908.2480472.586449.3894075.940984.3894075h114.357643v-2.6671742h-113.805847z" transform="translate(0 227.187954)"/><path d="m56.3671219 86.0590402c0 3.6060194-2.9322472 6.5372438-6.53358 6.5372438-3.6066641 0-6.5389113-2.9312244-6.5389113-6.5372438s2.9322472-6.5372438 6.5389113-6.5372438c3.6013328 0 6.53358 2.9312244 6.53358 6.5372438zm481.2377521-85.67229995c-.250574-.2480472-.583784-.38674025-.935654-.38674025h-421.913058c-.354536 0-.690411.14136023-.940985.3920746l-64.9252856 64.9616929c-.2479081.2507144-.3891891.5894455-.3891891.9441796v10.890072c-4.3317289.6507905-7.6718251 4.3608297-7.6718251 8.8710211 0 4.9636111 4.0385042 9.007047 9.0046647 9.007047 4.9608292 0 9.001999-4.0434359 9.001999-9.007047 0-4.5101914-3.3427618-8.2202306-7.6691593-8.8710211v-10.3379669l64.1415754-64.18287808h420.814799l103.444352 102.32613488c.250573.24538.589115.384073.938319.384073h114.354977v-2.667174h-113.805847z"/><path d="m16.2505328 69.0184647c0 3.6060195-2.9322473 6.5372438-6.53624571 6.5372438-3.60666411 0-6.53624568-2.9312243-6.53624568-6.5372438 0-3.6060194 2.92958157-6.5372437 6.53624568-6.5372437 3.60399841 0 6.53624571 2.9312243 6.53624571 6.5372437zm458.5768122-67.71154938c-.247908-.24804719-.58645-.38940742-.940985-.38940742h-414.3292011c-.3545354 0-.6930766.14136023-.9409848.38940742l-51.24768481 51.27375528c-.25057385.2507144-.39185486.5894455-.39185486.9415125v6.9613245c-3.6199925 1.165555-6.26434638 4.5288616-6.26434638 8.5349571 0 4.9636111 4.03850416 9.0070471 9.00199904 9.0070471 4.96349491 0 9.00199901-4.043436 9.00199901-9.0070471 0-4.9662782-4.0385041-9.007047-9.00199901-9.007047-.02399112 0-.04798223.0080016-.07197334.0080016v-5.9451312l50.46664075-50.48960608h413.2256105l103.865528 103.92377198c.247908.248048.58645.389408.940985.389408h114.357643v-2.667174h-113.805847z" mask="url(#c)" transform="translate(62.363549 17.040575)"/><path d="m90.5158067 131.510354c0 3.608687-2.9322472 6.539911-6.5362456 6.539911-3.6066641 0-6.5362457-2.931224-6.5362457-6.539911 0-3.606019 2.9295816-6.539911 6.5362457-6.539911 3.6039984 0 6.5362456 2.933892 6.5362456 6.539911zm441.1699263-86.6378166c-.250574-.2507143-.589115-.3920746-.94365-.3920746h-380.41643c-.351869 0-.69041.1413603-.940984.3920746l-30.343428 30.3631102c-.250574.2507144-.389189.5894455-.389189.9441797v18.7529012l-29.343798 29.3602525c-1.4954461-1.109544-3.3267678-1.789674-5.3286929-1.789674-4.9634949 0-9.0046648 4.040769-9.0046648 9.007047 0 4.966279 4.0411699 9.007047 9.0046648 9.007047 4.9634948 0 9.001999-4.040768 9.001999-9.007047 0-2.003047-.6797482-3.832729-1.7886708-5.331681l29.7329867-29.7496598c.250574-.2507144.391855-.5894455.391855-.9441796v-18.7529013l29.562384-29.5842954h379.310172l108.671748 108.7353551c.250574.248047.589116.389407.943651.389407h115.05605v-2.667174h-114.504254z"/><path d="m118.351896 131.510354c0 3.608687-2.934913 6.539911-6.536245 6.539911-3.603999 0-6.53358-2.931224-6.53358-6.539911 0-3.606019 2.929581-6.539911 6.53358-6.539911 3.601332 0 6.536245 2.933892 6.536245 6.539911zm405.759043-70.9254938c-.250574-.2507144-.589115-.3894074-.943651-.3894074h-362.734978c-.354535 0-.693077.138693-.940985.3894074l-23.863161 23.8738755c-.247908.2507144-.389189.5894455-.389189.9441797v18.0887746l-19.784672 19.793099c-1.11692-.496094-2.343132-.781482-3.638652-.781482-4.960829 0-9.001999 4.040769-9.001999 9.007047 0 4.966279 4.04117 9.007047 9.001999 9.007047 4.963495 0 9.001999-4.040768 9.001999-9.007047 0-2.691178-1.207553-5.080966-3.081526-6.731947l19.776675-19.790432c.250574-.250714.391855-.589446.391855-.94418v-18.0887746l23.079452-23.0923935h361.631387l116.946017 117.0169301c.250574.250714.589115.389408.94365.389408h114.354977v-2.667175h-113.803181z"/><path d="m128.01765 167.532675c0 3.608686-2.932248 6.539911-6.53358 6.539911-3.606665 0-6.536246-2.931225-6.536246-6.539911 0-3.60602 2.929581-6.539911 6.536246-6.539911 3.601332 0 6.53358 2.933891 6.53358 6.539911zm421.93705-40.175644c-.250574-.250714-.589116-.392075-.940985-.392075h-389.322464c-.354535 0-.693076.141361-.94365.392075l-32.531951 32.550193c-1.378156-.864165-2.993558-1.381596-4.73158-1.381596-4.963495 0-9.001999 4.040768-9.001999 9.007047 0 4.966278 4.038504 9.007047 9.001999 9.007047 4.960829 0 9.001999-4.040769 9.001999-9.007047 0-2.259097-.86368-4.299485-2.244502-5.883786l32.00148-32.016759h388.218872l90.163937 90.214498c.250574.250714.589115.392074.940985.392074h115.293296v-2.667174h-114.7415z"/><path d="m172.048274 166.441534c0 3.608686-2.932247 6.539911-6.536245 6.539911-3.606665 0-6.536246-2.931225-6.536246-6.539911 0-3.60602 2.929581-6.539911 6.536246-6.539911 3.603998 0 6.536245 2.933891 6.536245 6.539911zm371.563708-23.601824c-.250574-.248047-.589115-.389407-.94365-.389407h-375.324982c-.351869 0-.690411.14136-.940985.389407l-12.238133 12.247664c-.261237.261383-.389189.602781-.389189.944179s.127952.682797.389189.941513l4.131803 4.134119c-1.108923 1.498952-1.788671 3.331301-1.788671 5.334349 0 4.966278 4.04117 9.007047 9.004665 9.007047 4.963494 0 9.001999-4.040769 9.001999-9.007047s-4.038505-9.007047-9.001999-9.007047c-2.001926 0-3.835913.677462-5.331359 1.787006l-3.188153-3.18994 10.902629-10.914076h374.22139l97.446573 97.503884c.250574.248047.589115.389407.940985.389407h114.357642v-2.667174h-113.805846z"/><path d="m128.01765 204.625865c0 3.60602-2.932248 6.537244-6.53358 6.537244-3.606665 0-6.536246-2.931224-6.536246-6.537244 0-3.606019 2.929581-6.539911 6.536246-6.539911 3.601332 0 6.53358 2.933892 6.53358 6.539911zm402.187032-42.936169c-.250574-.248047-.589116-.389407-.943651-.389407h-325.87663c-.35187 0-.690411.14136-.940985.389407l-22.815549 22.831011h-38.948241c-.354535 0-.693076.14136-.94365.389407l-12.683302 12.695749c-1.538097-1.224233-3.457386-1.987045-5.568604-1.987045-4.963495 0-9.001999 4.040769-9.001999 9.007047 0 4.966279 4.038504 9.007047 9.001999 9.007047 4.960829 0 9.001999-4.040768 9.001999-9.007047 0-1.891026-.594447-3.640692-1.591411-5.091635l12.336764-12.346349h38.94824c.354536 0 .693077-.14136.943651-.392075l22.812883-22.828343h324.773039l111.449387 111.509216c.250574.250714.589115.392074.94365.392074h113.757865v-2.667174h-113.206069z"/><path d="m16.314224 36.0218573c0 3.6086866-2.9322473 6.539911-6.53624571 6.539911-3.60666411 0-6.53624568-2.9312244-6.53624568-6.539911 0-3.6060194 2.92958157-6.5372437 6.53624568-6.5372437 3.60399841 0 6.53624571 2.9312243 6.53624571 6.5372437zm353.333127-35.6041073c-.250574-.2480472-.589115-.38940742-.94365-.38940742h-308.8642652c-.3545354 0-.6930766.14136022-.9409848.38940742l-26.1636425 26.178314h-14.8638278c-.3545354 0-.6930766.1413602-.9436505.3894074l-1.8179933 1.8190128c-1.4981118-1.1095445-3.3294334-1.7870067-5.33135861-1.7870067-4.96349488 0-9.00199904 4.0407688-9.00199904 9.0043798 0 4.9662783 4.03850416 9.0070471 9.00199904 9.0070471 4.96349491 0 9.00466471-4.0407688 9.00466471-9.0070471 0-2.0003805-.6797482-3.8327292-1.7886708-5.331681l1.4288041-1.4269382h14.8638278c.3545354 0 .6930767-.1413602.9436505-.3920746l26.1609768-26.1756468h307.7606736l119.46775 119.5347423c.247908.250715.586449.392075.940985.392075h114.357642v-2.667174h-113.805847z" transform="translate(151.943721 173.844472)"/><path d="m226.042974 204.240313c0-3.60602 2.932248-6.537244 6.536246-6.537244 3.603999 0 6.53358 2.931224 6.53358 6.537244 0 3.608686-2.929581 6.539911-6.53358 6.539911-3.603998 0-6.536246-2.931225-6.536246-6.539911m15.538245 0c0-4.963611-4.04117-9.00438-9.001999-9.00438-4.963495 0-9.001999 4.040769-9.001999 9.00438 0 4.966278 4.038504 9.007047 9.001999 9.007047 4.960829 0 9.001999-4.040769 9.001999-9.007047"/><path d="m158.818774 93.7322334c0-3.6086865 2.932248-6.5399109 6.53358-6.5399109 3.606664 0 6.538912 2.9312244 6.538912 6.5399109 0 3.6060195-2.932248 6.5399106-6.538912 6.5399106-3.601332 0-6.53358-2.9338911-6.53358-6.5399106m15.538245 0c0-4.9662782-4.038504-9.007047-9.004665-9.007047-4.960829 0-9.001999 4.0407688-9.001999 9.007047 0 4.9662783 4.04117 9.0070466 9.001999 9.0070466 4.966161 0 9.004665-4.0407683 9.004665-9.0070466"/><path d="m220.730776 93.7322334c0-3.6086865 2.932247-6.5399109 6.53358-6.5399109 3.606664 0 6.536245 2.9312244 6.536245 6.5399109 0 3.6060195-2.929581 6.5399106-6.536245 6.5399106-3.601333 0-6.53358-2.9338911-6.53358-6.5399106m15.535579 0c0-4.9662782-4.038504-9.007047-9.001999-9.007047s-8.999334 4.0407688-8.999334 9.007047c0 4.9662783 4.035839 9.0070466 8.999334 9.0070466s9.001999-4.0407683 9.001999-9.0070466"/><path d="m345.416326 93.7322334c0-3.6086865 2.932247-6.5399109 6.53358-6.5399109 3.603999 0 6.536246 2.9312244 6.536246 6.5399109 0 3.6060195-2.932247 6.5399106-6.536246 6.5399106-3.601333 0-6.53358-2.9338911-6.53358-6.5399106m15.535579 0c0-4.9662782-4.038504-9.007047-9.001999-9.007047-4.960829 0-9.001999 4.0407688-9.001999 9.007047 0 4.9662783 4.04117 9.0070466 9.001999 9.0070466 4.963495 0 9.001999-4.0407683 9.001999-9.0070466"/></g></g></g></svg>