<svg height="879" viewBox="0 0 971 879" width="971" xmlns="http://www.w3.org/2000/svg" xmlns:xlink="http://www.w3.org/1999/xlink"><linearGradient id="a" x1="100%" x2="0%" y1="50%" y2="50%"><stop offset="0" stop-opacity="0"/><stop offset="1"/></linearGradient><mask id="b" fill="#fff"><path d="m286.606087.01123635h-286.03461299v851.63845765h286.03461299z" fill="#fff" fill-rule="evenodd"/></mask><mask id="c" fill="#fff"><path d="m.52836978 668.87486h241.28659522v-668.49040272h-241.28659522z" fill="#fff" fill-rule="evenodd"/></mask><mask id="d" fill="#fff"><path d="m477.476397 616.766882h-477.476397v-616.766882h477.476397z" fill="#fff" fill-rule="evenodd"/></mask><mask id="e" fill="#fff"><path d="m0 .08071804v86.32042176h270.410256v-86.32042176z" fill="#fff" fill-rule="evenodd"/></mask><mask id="f" fill="#fff"><path d="m0 .07496954v255.79344946h109.67622v-255.79344946z" fill="#fff" fill-rule="evenodd"/></mask><mask id="g" fill="#fff"><path d="m0 .41028109v38.09544881h88.4253378v-38.09544881z" fill="#fff" fill-rule="evenodd"/></mask><mask id="h" fill="#fff"><path d="m0 .24192447v118.08704453h331.853669v-118.08704453z" fill="#fff" fill-rule="evenodd"/></mask><mask id="i" fill="#fff"><path d="m0 .1367484v41.6239394h173.577302v-41.6239394z" fill="#fff" fill-rule="evenodd"/></mask><g fill="none" fill-rule="evenodd"><path d="m0 0h971v989h-971z" fill="url(#a)"/><g fill="#4b5161" opacity=".35" transform="translate(0 103)"><path d="m754.420123 199.270961c4.606213 0 8.351102 3.746257 8.351102 8.343162 0 4.60371-3.744889 8.346564-8.351102 8.346564-4.602809 0-8.347698-3.742854-8.347698-8.346564 0-4.596905 3.744889-8.343162 8.347698-8.343162zm-173.854765 531.243688c.316614-.319844.497049-.751973.497049-1.204518v-184.355977l61.378729-61.341975c.320018-.316441.500453-.748571.500453-1.201116v-160.582048l40.01584-40.004304c.320018-.319844.497049-.751974.497049-1.204519v-41.504848l29.819529-29.799924h29.822933c.830685 5.525814 5.566267 9.792667 11.323183 9.792667 6.339075 0 11.500213-5.158333 11.500213-11.493964s-5.161138-11.490562-11.500213-11.490562c-5.756916 0-10.492498 4.263451-11.323183 9.789265h-30.527653c-.452791 0-.885155.180337-1.201769.500181l-30.817031 30.793481c-.320018.319844-.500453.751973-.500453 1.204518v41.504849l-40.01584 40.004304c-.316614.319844-.497049.751974-.497049 1.204519v160.582048l-61.378729 61.338573c-.320018.319843-.500453.751973-.500453 1.204518v184.355977l-29.908045 29.898598c-.320018.319844-.500453.751974-.500453 1.204519v91.965326h3.404444v-91.260989z"/><path d="m171.484798 11.501458c0-4.6003079 3.748294-8.34316193 8.351103-8.34316193s8.344293 3.74285403 8.344293 8.34316193c0 4.6037104-3.741484 8.3465644-8.344293 8.3465644s-8.351103-3.742854-8.351103-8.3465644m-5.733084 679.164682v-338.646628l103.658524-103.602199c.316614-.319844.497049-.751974.497049-1.204519v-80.753777l16.201751-16.186142c.320018-.319844.497049-.751973.497049-1.201116v-41.872329c0-.452545-.177031-.884674-.497049-1.204518l-19.973875-19.9630225c-.320018-.3164413-.752382-.4967788-1.205173-.4967788h-53.170614l-30.105502-30.0891438v-32.6342846c5.470942-.881272 9.675431-5.5938655 9.675431-11.3102243 0-6.33563113-5.157733-11.49056191-11.493404-11.49056191-6.339076 0-11.500214 5.15493078-11.500214 11.49056191 0 5.7946185 4.330454 10.5548483 9.913743 11.3340425v33.3148034c0 .4525451.180435.8846746.500453 1.2045185l31.103004 31.0827014c.316614.3198439.748978.5001815 1.201769.5001815h53.170614l18.976373 18.9660617v40.463655l-16.198347 16.18274c-.320018.319844-.500453.751973-.500453 1.204518v80.753777l-103.65512 103.605602c-.320018.316442-.500453.748571-.500453 1.201116v338.646628l-161.77579599 161.687891h4.81388444l159.86930655-159.782438c.320018-.319844.497049-.751974.497049-1.201116" mask="url(#b)" transform="translate(369.117148 .025223)"/><path d="m273.633784 11.7494993c0-4.60030784 3.748294-8.34316187 8.347698-8.34316187 4.602809 0 8.347698 3.74285403 8.347698 8.34316187 0 4.6003079-3.744889 8.3431619-8.347698 8.3431619-4.599404 0-8.347698-3.742854-8.347698-8.3431619m-87.341022 416.7463807v-318.700618l88.883236-88.8349392c1.909893 1.4120768 4.248746 2.2797384 6.805484 2.2797384 6.339076 0 11.496809-5.1549308 11.496809-11.4905619 0-6.33563108-5.157733-11.49056185-11.496809-11.49056185-6.339075 0-11.496809 5.15493077-11.496809 11.49056185 0 2.5553485.868134 4.892931 2.284383 6.8051892l-89.383689 89.3351205c-.320018.319844-.497049.751973-.497049 1.201116v318.700618l-182.88675573 184.67582h4.79005333l181.0075024-182.777172c.316613-.319844.493644-.748571.493644-1.194311" transform="translate(315.734105 239.208234)"/><path d="m613.671197 130.03939c0-4.600308 3.748294-8.343162 8.347698-8.343162 4.606213 0 8.351102 3.742854 8.351102 8.343162s-3.744889 8.343162-8.351102 8.343162c-4.599404 0-8.347698-3.742854-8.347698-8.343162zm-358.630986 598.836229c.320017-.319844.500453-.751973.500453-1.201116v-141.87118l193.059236-192.954333c.316613-.316442.497048-.748571.497048-1.201116v-86.374863l166.113058-166.022797c1.913298 1.412076 4.252151 2.279738 6.808889 2.279738 6.339076 0 11.500213-5.154931 11.500213-11.490562s-5.161137-11.490562-11.500213-11.490562c-6.339075 0-11.496809 5.154931-11.496809 11.490562 0 2.555349.868134 4.892931 2.280978 6.805189l-166.610107 166.519576c-.320017.319844-.500453.751973-.500453 1.204519v86.374863l-193.059236 192.954333c-.320017.316441-.497048.748571-.497048 1.201116v141.87118l-124.776294 124.705091h4.813885z"/><path d="m474.328308 593.184231c0 4.600308-3.748294 8.343162-8.347698 8.343162-4.602809 0-8.347698-3.742854-8.347698-8.343162s3.744889-8.343162 8.347698-8.343162c4.599404 0 8.347698 3.742854 8.347698 8.343162m-19.844507 0c0 6.335631 5.157733 11.490562 11.496809 11.490562 6.339075 0 11.496809-5.154931 11.496809-11.490562s-5.157734-11.490562-11.496809-11.490562c-6.339076 0-11.496809 5.154931-11.496809 11.490562"/><path d="m540.601947 104.623029c0-4.600307 3.748293-8.3431615 8.351102-8.3431615s8.344293 3.7428545 8.344293 8.3431615c0 4.600308-3.741484 8.343162-8.344293 8.343162s-8.351102-3.742854-8.351102-8.343162m19.844506 0c0-6.3356307-5.157733-11.4905615-11.493404-11.4905615-6.339076 0-11.500213 5.1549308-11.500213 11.4905615 0 6.335632 5.161137 11.490562 11.500213 11.490562 6.335671 0 11.493404-5.15493 11.493404-11.490562"/><path d="m351.920354 11.7494993c0-4.60030784 3.748293-8.34316187 8.351102-8.34316187s8.344294 3.74285403 8.344294 8.34316187c0 4.6003079-3.741485 8.3431619-8.344294 8.3431619s-8.351102-3.742854-8.351102-8.3431619m-176.922169 428.0736177v-162.535137l109.255431-109.199468c.320018-.316441.500454-.748571.500454-1.201116v-77.2559095l68.708497-68.6711637c1.913298 1.4120768 4.252151 2.2797384 6.808889 2.2797384 6.335671 0 11.493405-5.1549308 11.493405-11.4905619 0-6.33563108-5.157734-11.49056185-11.493405-11.49056185-6.339075 0-11.500213 5.15493077-11.500213 11.49056185 0 2.5553485.868133 4.892931 2.284382 6.8051892l-69.208951 69.1679424c-.320018.3198439-.497049.7519734-.497049 1.2045185v77.2559096l-109.255431 109.196065c-.320018.319844-.500453.751974-.500453 1.204519v162.541942l-170.74310255 173.341778h4.77643555l168.884276-171.453338c.309804-.319843.486835-.74857.486835-1.190908" transform="translate(188.681593 239.208234)"/><path d="m606.064307 201.204656c0 4.600307-3.748294 8.343161-8.347698 8.343161-4.602809 0-8.347698-3.742854-8.347698-8.343161 0-4.603711 3.744889-8.346565 8.347698-8.346565 4.599404 0 8.347698 3.742854 8.347698 8.346565m-19.844507 0c0 6.335631 5.157733 11.490561 11.496809 11.490561 6.339075 0 11.496809-5.15493 11.496809-11.490561 0-6.335632-5.157734-11.493965-11.496809-11.493965-6.339076 0-11.496809 5.158333-11.496809 11.493965"/><path d="m221.967054 11.8784217c0-4.60371041 3.748294-8.34656444 8.347698-8.34656444 4.606213 0 8.351102 3.74285403 8.351102 8.34656444 0 4.6003079-3.744889 8.3431619-8.351102 8.3431619-4.599404 0-8.347698-3.742854-8.347698-8.3431619zm-103.16488 507.6909283c.320018-.319844.500454-.751973.500454-1.201116v-340.565691l97.840328-97.7973727c.320018-.3164413.497049-.7485708.497049-1.2011159v-53.6691242l4.87176-4.8691128c2.056285 1.9088555 4.783245 3.1031662 7.802987 3.1031662 6.339076 0 11.500213-5.1549308 11.500213-11.4905619 0-6.33563105-5.161137-11.49396442-11.500213-11.49396442s-11.496809 5.15833337-11.496809 11.49396442c0 2.0823879.599182 4.011659 1.572853 5.6959434l-5.654782 5.6517095c-.320018.3198439-.500453.7519734-.500453 1.2011159v53.6725268l-97.840329 97.7939707c-.320018.319844-.497049.751973-.497049 1.204518v340.562289l-114.86935989 114.810346c-.32001778.316441-.50045333.748571-.50045333 1.201116v35.203243h3.40444444v-34.498906z" mask="url(#c)" transform="translate(439.173333 182.800398)"/><path d="m433.055887 97.9607492c0-4.6003078 3.748293-8.3431619 8.351102-8.3431619s8.344294 3.7428541 8.344294 8.3431619-3.741485 8.3431618-8.344294 8.3431618-8.351102-3.742854-8.351102-8.3431618zm-307.904764 106.2902498c.316613.319843.748977.500181 1.201769.500181h208.22944c.452791 0 .885155-.180338 1.205173-.500181l97.8948-97.841607c2.042667 1.871427 4.742391 3.041919 7.724684 3.041919 6.335671 0 11.493405-5.154931 11.493405-11.4905618 0-6.3356311-5.157734-11.4905618-11.493405-11.4905618-6.339075 0-11.500213 5.1549307-11.500213 11.4905618 0 2.1198168.619609 4.0797108 1.62392 5.7878138l-97.653084 97.600022h-206.82l-42.5010849-42.481393c-.3200178-.316441-.7523822-.496779-1.2051733-.496779h-83.35101336v3.402595h82.64629336z"/><path d="m546.991748 11.5393035c0-4.60030785 3.748294-8.34316188 8.351103-8.34316188s8.344293 3.74285403 8.344293 8.34316188c0 4.6003079-3.741484 8.3431619-8.344293 8.3431619s-8.351103-3.742854-8.351103-8.3431619zm-444.014453 89.5528865c.320018.319844.752382.500181 1.205173.500181h120.59904l28.052623 28.03738c.316613.319844.748977.500181 1.201769.500181h125.542293c.452791 0 .885155-.180337 1.205173-.500181l59.649271-59.6202623h57.307014c.452791 0 .885155-.1803376 1.205173-.5001815l49.149964-49.1232578c1.984792 1.6264402 4.490463 2.643816 7.248063 2.643816 6.335671 0 11.493404-5.1549308 11.493404-11.4905619 0-6.33563108-5.157733-11.49056186-11.493404-11.49056186-6.339076 0-11.500214 5.15493078-11.500214 11.49056186 0 2.3477903.714934 4.532256 1.933725 6.3526441l-48.741431 48.7149465h-57.307014c-.452791 0-.885155.1769349-1.201769.4967788l-59.652675 59.6236651h-124.132853l-28.049218-28.0407823c-.320018-.3164413-.752382-.4967788-1.205174-.4967788h-120.59904l-42.2525596-42.2261986c-.3200177-.3198439-.7523822-.5001814-1.2051733-.5001814h-61.42979554v3.4025945h60.72507554z" transform="translate(0 138.965332)"/><path d="m457.631891 26.0670146c0-4.6003079 3.748293-8.3431619 8.351102-8.3431619s8.344293 3.742854 8.344293 8.3431619c0 4.6003078-3.741484 8.3431619-8.344293 8.3431619s-8.351102-3.7428541-8.351102-8.3431619m-310.778116 461.1570454v-133.888694l68.732329-68.701787h81.733902c.452791 0 .885156-.180338 1.205174-.496779l123.734533-123.670702c.320018-.319844.500453-.751974.500453-1.201116v-87.596395l36.413938-36.3941515c1.913298 1.4154793 4.252151 2.283141 6.808889 2.283141 6.335671 0 11.493404-5.1549308 11.493404-11.4905619s-5.157733-11.4905619-11.493404-11.4905619c-6.339076 0-11.500213 5.1549308-11.500213 11.4905619 0 2.5553485.868133 4.892931 2.284382 6.8017865l-36.914391 36.894333c-.316614.3198439-.497049.7519734-.497049 1.2011159v87.592992l-122.740436 122.673742h-81.733902c-.452791 0-.881751.180338-1.201769.500182l-69.733235 69.695344c-.316614.319844-.497049.751974-.497049 1.204519v133.888694l-143.44967144 143.371724v1.452908h3.36018666l142.99347578-142.915777c.320018-.319844.500453-.751973.500453-1.204518" mask="url(#d)" transform="translate(0 220.331923)"/><path d="m250.565749 11.5712799c0-4.60030785 3.748294-8.34316188 8.351103-8.34316188 4.602808 0 8.344293 3.74285403 8.344293 8.34316188 0 4.6003079-3.741485 8.3431619-8.344293 8.3431619-4.602809 0-8.351103-3.742854-8.351103-8.3431619m-64.960204 74.3330811 65.763653-65.731322c2.029049 1.7761544 4.650471 2.8888028 7.547654 2.8888028 6.335671 0 11.493404-5.1549308 11.493404-11.4905619 0-6.33563108-5.157733-11.49056186-11.493404-11.49056186-6.339076 0-11.500214 5.15493078-11.500214 11.49056186 0 2.2048813.657058 4.2498406 1.739671 6.0055794l-65.460657 65.4216859h-183.69701378v3.4025946h184.40173378c.452791 0 .885155-.1803376 1.205173-.4967788" mask="url(#e)" transform="translate(0 367.628202)"/><path d="m376.154684 308.020946c0-4.600308 3.748293-8.343162 8.351102-8.343162s8.344293 3.742854 8.344293 8.343162-3.741484 8.343162-8.344293 8.343162-8.351102-3.742854-8.351102-8.343162m-199.445974 113.772555 78.25456-78.215442h95.664889c.452791 0 .885156-.180337 1.201769-.496779l25.866969-25.852913c1.913298 1.415479 4.252151 2.283141 6.808889 2.283141 6.335671 0 11.493404-5.154931 11.493404-11.490562s-5.157733-11.490562-11.493404-11.490562c-6.339076 0-11.500214 5.154931-11.500214 11.490562 0 2.555348.868134 4.892931 2.284383 6.801787l-25.366516 25.352732h-95.664889c-.452791 0-.881751.180337-1.201769.500181l-78.257964 78.212039h-174.79779567v3.402595h175.50251567c.452791 0 .885155-.180338 1.205173-.496779"/><path d="m46.7212338 11.5655314c0-4.60030785 3.7482933-8.34316188 8.3511022-8.34316188s8.3442933 3.74285403 8.3442933 8.34316188c0 4.6003079-3.7414844 8.3431619-8.3442933 8.3431619s-8.3511022-3.742854-8.3511022-8.3431619m62.9549862 133.9805636v-80.4917769c0-.4525451-.180435-.8846746-.497048-1.2045185l-45.1735738-45.1422222c1.5762578-1.9666996 2.5601422-4.4301781 2.5601422-7.142046 0-6.33563108-5.1577333-11.49056186-11.4934044-11.49056186-6.3390756 0-11.5002133 5.15493078-11.5002133 11.49056186 0 6.3356311 5.1611377 11.4905619 11.5002133 11.4905619 2.3967289 0 4.62664-.7417656 6.4684444-2.0041282l44.7309956 44.7066901v79.0831028l-106.27313778 106.215392v4.811269l109.18053378-109.121208c.316613-.316441.497048-.748571.497048-1.201116" mask="url(#f)" transform="translate(0 549.932038)"/><path d="m68.5808311 11.900843c0-4.6003079 3.7482933-8.34316193 8.3511022-8.34316193s8.3442934 3.74285403 8.3442934 8.34316193c0 4.6003078-3.7414845 8.3431619-8.3442934 8.3431619s-8.3511022-3.7428541-8.3511022-8.3431619m-12.3104711 26.1081081 15.7625778-15.7540129c1.4911466.7077397 3.1423022 1.1364666 4.8989955 1.1364666 6.3356711 0 11.4934045-5.1549307 11.4934045-11.4905618 0-6.33563113-5.1577334-11.49056191-11.4934045-11.49056191-6.3390755 0-11.5002133 5.15493078-11.5002133 11.49056191 0 3.3311401 1.4502933 6.3118129 3.7278667 8.4146163l-14.79912 14.7876761h-54.36216892v3.4025945h55.06688892c.4527911 0 .8851555-.1769349 1.2051733-.4967788" mask="url(#g)" transform="translate(0 660.599909)"/><path d="m320.360265 3.38932445c4.602809 0 8.344293 3.74625663 8.344293 8.34316185 0 4.6003079-3.741484 8.3431619-8.344293 8.3431619-4.606213 0-8.351102-3.742854-8.351102-8.3431619 0-4.59690522 3.744889-8.34316185 8.351102-8.34316185m-284.1451468 114.44286555 73.5700448-73.533471h90.333529c.449386 0 .881751-.1769349 1.201768-.4967788l30.384667-30.3681566h77.328551c.830685 5.5258136 5.569671 9.7892646 11.326587 9.7892646 6.335671 0 11.493404-5.1549308 11.493404-11.4905619 0-6.33563105-5.157733-11.49056183-11.493404-11.49056183-5.756916 0-10.495902 4.263451-11.326587 9.78926463h-78.033271c-.452791 0-.885155.1803375-1.205173.5001814l-30.381262 30.3647539h-90.333529c-.449387 0-.881751.1803375-1.201769.5001814l-73.5700447 73.5300692h-34.30999108v3.402594h35.01471108c.4493867 0 .8817511-.176935 1.2017689-.496779" mask="url(#h)" transform="translate(0 276.636775)"/><path d="m183.853277 82.4148519c0 4.6003078-3.744889 8.3431618-8.344293 8.3431618-4.606213 0-8.351102-3.742854-8.351102-8.3431618 0-4.6003079 3.744889-8.3431619 8.351102-8.3431619 4.599404 0 8.344293 3.742854 8.344293 8.3431619zm-93.3362486-22.7735655c.3200178.3164413.7523823.4967788 1.2051734.4967788h59.0875382l15.483413 15.4750001c-1.416249 1.9088556-2.284382 4.246438-2.284382 6.8017866 0 6.335631 5.161137 11.4905618 11.500213 11.4905618 6.335671 0 11.493404-5.1549308 11.493404-11.4905618 0-6.3356311-5.157733-11.4905619-11.493404-11.4905619-2.556738 0-4.898996.8676616-6.808889 2.2831409l-15.983867-15.9717789c-.316613-.3198439-.748977-.5001814-1.201768-.5001814h-59.0875382l-56.1256711-56.09177152c-.3200178-.31984389-.7523823-.5001814-1.2017689-.5001814h-35.09982224v3.40259457h34.39510224z" transform="translate(0 211.457425)"/><path d="m25.8193067 281.820287c0-4.600308 3.7482933-8.343162 8.3511022-8.343162s8.3442933 3.742854 8.3442933 8.343162-3.7414844 8.343162-8.3442933 8.343162-8.3511022-3.742854-8.3511022-8.343162m2.4648177 88.794108 47.3626312-47.336895c.6638666-.666909.6638666-1.742129 0-2.405635l-32.26392-32.246389c1.4128444-1.912258 2.2809777-4.24984 2.2809777-6.805189 0-6.335631-5.1577333-11.490562-11.4934044-11.490562-6.3390756 0-11.5002133 5.154931-11.5002133 11.490562s5.1611377 11.490562 11.5002133 11.490562c2.5533333 0 4.8955911-.867662 6.8054844-2.279738l31.0587467 31.04187-45.6604089 45.635598h-26.3742311v3.402595h27.0789511c.4527911 0 .8851556-.180337 1.2051733-.496779"/><path d="m370.57582 396.936867c0 4.600308-3.744888 8.343162-8.344293 8.343162-4.606213 0-8.351102-3.742854-8.351102-8.343162s3.744889-8.343162 8.351102-8.343162c4.599405 0 8.344293 3.742854 8.344293 8.343162m-135.06112 83.571125c-4.602808 0-8.351102-3.746256-8.351102-8.346564 0-4.596906 3.748294-8.343162 8.351102-8.343162 4.602809 0 8.344294 3.746256 8.344294 8.343162 0 4.600308-3.741485 8.346564-8.344294 8.346564m115.216614-83.571125c0 2.596179.898773 4.964385 2.352471 6.886851l-66.67264 66.636412h-39.576667c-.830684-5.525813-5.562862-9.789264-11.319778-9.789264-6.339075 0-11.500213 5.154931-11.500213 11.490562 0 6.339033 5.161138 11.490562 11.500213 11.490562 5.756916 0 10.489094-4.263451 11.319778-9.789265h40.281387c.452791 0 .885155-.176935 1.205173-.496779l67.186711-67.150204c1.896276 1.374648 4.207894 2.211687 6.723778 2.211687 6.335671 0 11.493405-5.154931 11.493405-11.490562s-5.157734-11.490562-11.493405-11.490562c-6.339075 0-11.500213 5.154931-11.500213 11.490562"/><path d="m170.428191 30.2701259c0 4.6003079-3.744889 8.3431619-8.344293 8.3431619-4.606214 0-8.351102-3.742854-8.351102-8.3431619 0-4.6003078 3.744888-8.3431619 8.351102-8.3431619 4.599404 0 8.344293 3.7428541 8.344293 8.3431619zm-17.560124-6.8017865c-1.416249 1.9088555-2.284383 4.246438-2.284383 6.8017865 0 6.3356311 5.161138 11.4905619 11.500214 11.4905619 6.335671 0 11.493404-5.1549308 11.493404-11.4905619s-5.157733-11.4905618-11.493404-11.4905618c-2.556738 0-4.898996.8676616-6.808889 2.2831409l-20.440285-20.4291778c-.320017-.31984389-.752382-.4967788-1.205173-.4967788h-133.63125322v3.40259457h132.92653322z" mask="url(#i)" transform="translate(0 482.22872)"/><path d="m138.249042 538.839011c0 4.600308-3.744889 8.343162-8.344294 8.343162-4.606213 0-8.351102-3.742854-8.351102-8.343162s3.744889-8.343162 8.351102-8.343162c4.599405 0 8.344294 3.742854 8.344294 8.343162zm-17.274151-7.148851c-1.583067 1.970102-2.570356 4.433581-2.570356 7.148851 0 6.335631 5.161138 11.490562 11.500213 11.490562 6.335672 0 11.493405-5.154931 11.493405-11.490562s-5.157733-11.490562-11.493405-11.490562c-2.393324 0-4.619831.738363-6.46504 1.997323l-18.053768-18.050764c-.320018-.316441-.752383-.496779-1.205174-.496779h-104.17940422v3.402595h103.47468422z"/><path d="m63.4176507 603.252508c0 4.600308-3.7448889 8.343162-8.3442934 8.343162-4.6062133 0-8.3511022-3.742854-8.3511022-8.343162s3.7448889-8.343162 8.3511022-8.343162c4.5994045 0 8.3442934 3.742854 8.3442934 8.343162m-19.8445067 0c0 6.335631 5.1611378 11.490562 11.5002133 11.490562 6.3356711 0 11.4934045-5.154931 11.4934045-11.490562s-5.1577334-11.490562-11.4934045-11.490562c-6.3390755 0-11.5002133 5.154931-11.5002133 11.490562"/><path d="m35.015392 662.645137c4.6028089 0 8.3442933 3.746256 8.3442933 8.343162 0 4.600308-3.7414844 8.343162-8.3442933 8.343162-4.6062133 0-8.3511022-3.742854-8.3511022-8.343162 0-4.596906 3.7448889-8.343162 8.3511022-8.343162m0 19.833724c6.3356711 0 11.4934044-5.154931 11.4934044-11.490562s-5.1577333-11.490562-11.4934044-11.490562c-5.7569156 0-10.4959022 4.263451-11.3265867 9.789264h-23.68812441v3.402595h23.68812441c.8306845 5.525814 5.5696711 9.789265 11.3265867 9.789265"/></g></g></svg>